<?xml version="1.0" encoding="utf-8"?>
<!-- Generator: Adobe Illustrator 25.1.0, SVG Export Plug-In . SVG Version: 6.00 Build 0)  -->
<svg version="1.1" id="レイヤー_1" xmlns="http://www.w3.org/2000/svg" xmlns:xlink="http://www.w3.org/1999/xlink" x="0px"
	 y="0px" viewBox="0 0 30 50.89" style="enable-background:new 0 0 30 50.89;" xml:space="preserve">
<style type="text/css">
	.st0{fill:#040000;}
</style>
<g>
	<path class="st0" d="M3.73,50.89h22.54l2.31-29.09H1.42L3.73,50.89z M3.49,28.87h23.02L25.5,41.63h-21L3.49,28.87z M5.12,49.39
		l-0.5-6.26h20.76l-0.5,6.26H5.12z M26.96,23.3l-0.32,4.07H3.37L3.05,23.3H26.96z"/>
	<path class="st0" d="M28.42,18.24l-0.66-4.69H2.24l-0.66,4.69H0v1.5h1.37h27.26H30v-1.5H28.42z M3.1,18.24l0.45-3.19h22.91
		l0.45,3.19H3.1z"/>
	<path class="st0" d="M15.92,8.24c-0.65,0.5-1.54,1.18-1.54,2.5h1.5c0-0.56,0.33-0.83,0.95-1.31c0.65-0.5,1.54-1.18,1.54-2.5
		c0-1.32-0.89-2.01-1.54-2.5c-0.62-0.48-0.95-0.76-0.95-1.31c0-0.47,0.37-0.75,0.98-1.18C17.48,1.5,18.24,0.96,18.24,0h-1.5
		c0,0.19-0.39,0.46-0.73,0.71c-0.68,0.48-1.62,1.14-1.62,2.41c0,1.32,0.89,2.01,1.54,2.5c0.62,0.48,0.95,0.76,0.95,1.31
		C16.87,7.49,16.55,7.76,15.92,8.24z"/>
</g>
<g>
</g>
<g>
</g>
<g>
</g>
<g>
</g>
<g>
</g>
<g>
</g>
</svg>
