<svg width="35" height="35" viewBox="0 0 35 35" fill="none" xmlns="http://www.w3.org/2000/svg">
<path d="M7.48056 4.38622C7.99985 3.47746 8.96627 2.91663 10.0129 2.91663H24.987C26.0337 2.91663 27.0001 3.47746 27.5194 4.38622L29.186 7.30289C30.131 8.95651 29.2568 10.9536 27.5968 11.514C27.6028 11.6325 27.6017 11.7528 27.593 11.8744L26.343 29.3744C26.234 30.9007 24.9639 32.0833 23.4337 32.0833H11.5662C10.036 32.0833 8.76593 30.9007 8.65691 29.3744L7.40691 11.8744C7.39822 11.7528 7.3971 11.6325 7.40313 11.514C5.74308 10.9536 4.86898 8.95649 5.81389 7.30289L7.48056 4.38622ZM10.3162 11.6666L10.6287 16.0416H24.3712L24.6837 11.6666H10.3162ZM11.2537 24.7916L11.5662 29.1666H23.4337L23.7462 24.7916H11.2537ZM26.6537 8.74996L24.987 5.83329L10.0129 5.83329L8.34627 8.74996H26.6537Z" fill="#FC2951"/>
</svg>
