<svg width="35" height="35" viewBox="0 0 35 35" fill="none" xmlns="http://www.w3.org/2000/svg">
<path d="M29.1666 29.1667H5.83329C4.27363 29.2134 2.96973 27.9903 2.91663 26.4309V8.56774C2.96973 7.0085 4.27387 5.78587 5.83329 5.83337H29.1666C30.726 5.78587 32.0302 7.0085 32.0833 8.56774V26.4323C32.0294 27.9912 30.7257 29.2134 29.1666 29.1667ZM5.83329 8.75004V26.234L29.1666 26.25V8.76608L5.83329 8.75004ZM19.5854 23.3334H8.74996C8.85719 22.126 9.42858 21.0072 10.3439 20.2125C11.363 19.2015 12.7324 18.6218 14.1677 18.5938C15.6029 18.6218 16.9723 19.2015 17.9914 20.2125C18.9065 21.0074 19.4779 22.126 19.5854 23.3334ZM26.25 21.875H21.875V18.9584H26.25V21.875ZM14.1677 17.5C13.3861 17.5272 12.6284 17.2286 12.0754 16.6757C11.5224 16.1227 11.2238 15.3649 11.251 14.5834C11.2243 13.8019 11.523 13.0444 12.0759 12.4916C12.6287 11.9387 13.3862 11.64 14.1677 11.6667C14.9491 11.64 15.7066 11.9387 16.2595 12.4916C16.8124 13.0444 17.1111 13.8019 17.0843 14.5834C17.1115 15.3649 16.8129 16.1227 16.26 16.6757C15.707 17.2286 14.9492 17.5272 14.1677 17.5ZM26.25 16.0417H20.4166V13.125H26.25V16.0417Z" fill="#FC2951"/>
</svg>
