<svg width="26" height="26" viewBox="0 0 26 26" fill="none" xmlns="http://www.w3.org/2000/svg">
<path d="M21.6666 21.6667H4.33329C3.17468 21.7013 2.20608 20.7928 2.16663 19.6343V6.36458C2.20607 5.20629 3.17487 4.29805 4.33329 4.33333H21.6666C22.8251 4.29805 23.7938 5.20629 23.8333 6.36458V19.6354C23.7933 20.7934 22.8248 21.7013 21.6666 21.6667ZM4.33329 6.5V19.4881L21.6666 19.5V6.51191L4.33329 6.5ZM14.5491 17.3333H6.49996C6.57961 16.4364 7.00408 15.6053 7.68404 15.015C8.4411 14.2639 9.45834 13.8333 10.5245 13.8125C11.5907 13.8333 12.608 14.2639 13.365 15.015C14.0448 15.6055 14.4693 16.4365 14.5491 17.3333ZM19.5 16.25H16.25V14.0833H19.5V16.25ZM10.5245 13C9.94396 13.0202 9.38106 12.7984 8.97027 12.3876C8.55949 11.9768 8.3377 11.4139 8.35788 10.8333C8.33803 10.2528 8.55992 9.69013 8.97063 9.27942C9.38134 8.86871 9.94405 8.64681 10.5245 8.66666C11.105 8.64681 11.6677 8.86871 12.0785 9.27942C12.4892 9.69013 12.7111 10.2528 12.6912 10.8333C12.7114 11.4139 12.4896 11.9768 12.0788 12.3876C11.668 12.7984 11.1051 13.0202 10.5245 13ZM19.5 11.9167H15.1666V9.75H19.5V11.9167Z" fill="black"/>
</svg>
