<?xml version="1.0" encoding="utf-8"?>
<!-- Generator: Adobe Adobe Illustrator 24.2.0, SVG Export Plug-In . SVG Version: 6.00 Build 0)  -->
<svg version="1.1" id="レイヤー_1" xmlns="http://www.w3.org/2000/svg" xmlns:xlink="http://www.w3.org/1999/xlink" x="0px"
	 y="0px" width="1024px" height="1024px" viewBox="0 0 1024 1024" style="enable-background:new 0 0 1024 1024; fill:#FC2951;"
	 xml:space="preserve">
<g>
	<g>
		<g>
			<path class="st0" d="M724.16,998.77l-8.44-1.36c-23.91-4.1-26.73-6.89-29.69-35.92c-2.46-22.94-4.07-63.69-7.1-108.17
				c-2.03-31.37-3.15-69.31-3.28-94.6c-0.13-26.7,10.14-33.78,28.86-37.15l10.29-1.92c3.73-3.77,3.67-15.01-1.49-16.38
				c-15.92,1.02-36.06,1.59-59.01,1.7c-15.46,0.08-29.04,0.15-45.9-1.18c0.14,29.04-16.11,57.7-36.5,101.83l-30.59,66.2
				c-4.17,9.39-20.88,38.98-27.38,50.72c-6.14-11.21-13.71-25.69-26.49-53.27l-24.14-51.4c-22.72-48.13-34.56-72.9-45.07-113.12
				c-21.54,1.98-32.31,1.57-46.36,1.63c-15.46,0.08-37.01-0.28-53.87-1.14c-5.14,2.83-5.09,11.74-1.32,16.4l13.59,2.27
				c19.22,3.19,28.62,8.76,28.74,33.58c0.48,96.49-0.2,147.08-2.72,206.11c-0.83,21.55-2.65,32.8-20.9,35.23l-14.98,1.95
				c-3.73,3.77-3.68,14.54,1.02,16.39c21.54-1.04,41.68-1.61,64.63-1.73c21.08-0.11,46.84,0.23,69.33,1.06
				c5.61-2.37,6.02-13.15,1.32-16.4l-14.06-1.8c-21.56-2.7-21.59-8.32-21.73-36.9l0.33-121.79l-0.27-53.4l0.94,0
				c35.03,74.77,72.9,152.81,104.2,231.81c2.35,1.86,5.64,3.25,9.38,3.23c4.22-0.02,9.36-0.99,12.17-2.87
				c17.98-58.17,75.01-174.62,100.94-235.65l0.93-0.01c2.02,30.44,2.6,51.05,3.19,75.4c0.62,30.44,1.32,77.28,1.46,105.38
				c0.11,23.42-2.66,29.99-21.38,32.89l-18.25,2.9c-3.73,3.3-2.74,14.07,1.02,16.39c17.33-1.03,37.46-1.59,55.26-1.68
				c14.99-0.07,32.79,0.3,51.53,1.15C728.45,1013.27,728.38,1001.1,724.16,998.77z"/>
			<path class="st0" d="M101.77,605.67C41.26,637.53,36,696.94,62.84,747.92c25.96,49.32,76.84,77.59,134.26,47.89
				c59.49-30.79,67.58-94.87,41.83-143.78C213.19,603.13,160.21,574.9,101.77,605.67z M174.8,731.32
				c-43.52,22.91-82.64,26.04-95.29,2c-12.44-23.63,10.36-45.68,47.88-64.91c40.42-20.75,81.35-27.48,93.79-3.85
				C230.78,682.8,219.98,707.54,174.8,731.32z"/>
			<path class="st0" d="M159.54,477.88c9.65,1.88,10.48,2.52,8.87,10.8l-2.78,14.25c0.85,5.42,9.78,8.59,13.71,5.54
				c7.84-13.27,18.63-24.52,28.14-34.12c7.59-7.11,19.49-16.72,42.5-27.02c2.47-2.86,3.62-11.23,0.39-14.24l-34.48-6.73
				c-8.73-1.71-9.11-2.26-7.49-10.53l7.99-40.91c-1.39-2.66-3.88-4.57-8.02-5.38c-5.06-0.99-13.6-1.22-17.26,2.84l-8.08,41.37
				c-1.17,5.98-1.72,6.35-11.83,4.37l-68.96-13.46c-25.75-5.02-54.25-10.59-47.97-42.77c1.26-6.44,5.91-13.16,10.67-17.96
				c-0.48-4.87-5-8.61-10.7-8.77c-16.3,10.18-34.02,32.49-39.59,60.99c-7.45,38.16,12.01,55.79,42.36,61.72L159.54,477.88z"/>
			<path class="st0" d="M359.14,370.65c12.53-15.17,9.69-34.53-4.76-46.46c-17.34-14.32-37.4-8.42-48.74,5.31
				c-13.13,15.89-10.05,34.23,4.76,46.46C326.3,389.09,347.21,385.1,359.14,370.65z"/>
			<path class="st0" d="M299.08,281.56c-11.43-8.23-27.62-20.99-43.87-34.42l-66.45-54.89c-25.28-20.88-27.34-25.01-18.58-37.82
				l4.95-7.46c0.22-4.68-8.09-11.54-12.94-10.08c-9.72,13.24-20.99,27.62-34.71,44.23c-13.42,16.25-26.31,31.12-36.88,42.44
				c-0.52,5.04,7.79,11.9,12.34,10.8l6.39-6.26c10.93-11.02,15.37-9.78,40.65,11.1l54.53,45.04c14.45,11.93,18.78,15.51,17.44,25.95
				l-0.93,7.74c0.08,4.32,6.58,9.69,10.83,8.95c18.72-13.09,49.65-30.68,65.09-36.14C299.35,287.85,300.06,284.79,299.08,281.56z"/>
			<path class="st0" d="M446.48,201.04c53.78-12.76,94.3-57.03,79.06-121.29C509.75,13.21,453.52-6.67,397.47,6.63
				c-54.23,12.86-94.28,55.1-79.82,118.1C332.66,190.02,392.7,213.8,446.48,201.04z M407.45,26.41
				c25.98-6.16,41.67,21.41,50.94,62.53c10.03,44.31,6.35,85.63-19.63,91.79c-20.05,4.76-41.33-11.86-53.11-61.54
				C374.31,71.34,381.02,32.68,407.45,26.41z"/>
			<path class="st0" d="M864.25,130.46c-15.27-10.86-29.88-21.83-40.4-30.47c-5.06-0.15-11.31,8.62-9.89,13.09l6.06,6.03
				c7.69,7.77,7.32,11.53-7.61,32.52l-45.89,64.5c-10.59,14.88-26.91,21.67-46,8.09c-10.69-7.6-14.79-17.99-14.85-24.36
				c-0.39-4.3,2.11-9.42,6.99-16.29l48.6-68.32c14.93-20.99,18.9-23.34,29.26-17.7l6.65,3.58c4.68-0.12,10.93-8.9,9.12-13.63
				c-12.37-7.66-24.86-15.96-43.18-28.99c-16.03-11.4-31.41-22.92-44.22-33.18c-5.06-0.15-11.31,8.63-9.88,13.09l5.56,5.11
				c12.65,11.3,12.01,15.44-7,42.16l-41,57.63c-10.86,15.27-14.12,19.85-24.63,19.27l-7.79-0.37c-4.3,0.39-9.19,7.26-8.15,11.45
				c14.41,17.72,34.56,47.58,40.74,62.32c3.05,2.17,6.16,2.66,9.31,1.45c3.8-5.34,9.18-15.32,11.07-17.99
				c1.63-2.29,2.94-2.51,4.08-1.7c1.14,0.81,3.6,5.44,5.08,8.22c4.87,10.93,15.47,34,33.03,46.49
				c31.68,22.54,63.19,12.19,81.92-14.15l46.7-65.65c19.01-26.72,22.7-28.68,37.53-20.44l6.65,3.58c4.68-0.12,10.93-8.9,9.12-13.63
				C898.87,154.51,882.57,143.49,864.25,130.46z"/>
			<path class="st0" d="M1009.02,356.22c-5.5-17.91-25.46-31.87-47.4-25.13c-21.05,6.46-32.22,27.53-26.03,47.68
				c6.6,21.49,29.05,30.77,48.3,24.86C1004.48,397.3,1015.62,377.71,1009.02,356.22z"/>
		</g>
	</g>
</g>
</svg>
