<?xml version="1.0" encoding="utf-8"?>
<!-- Generator: Adobe Adobe Illustrator 24.2.0, SVG Export Plug-In . SVG Version: 6.00 Build 0)  -->
<svg version="1.1" id="レイヤー_1" xmlns="http://www.w3.org/2000/svg" xmlns:xlink="http://www.w3.org/1999/xlink" x="0px"
	 y="0px" width="1024px" height="204.19px" viewBox="0 0 1024 204.19" style="enable-background:new 0 0 1024 204.19; fill:#FC2951;"
	 xml:space="preserve">
<style type="text/css">
	.st0{fill:#FC2951;}
</style>
<g>
	<path class="st0" d="M1010.33,11.76c-12.07,2.11-18.7,6.64-18.7,23.83c0,16.29,0.6,40.72,1.81,60.92
		c1.81,28.65,2.71,54.89,4.22,69.67c1.81,18.7,3.62,20.51,19,23.22l5.43,0.91c2.71,1.51,2.71,9.35-1.21,10.56
		c-12.06-0.6-23.53-0.91-33.18-0.91c-11.46,0-24.43,0.3-35.59,0.91c-2.41-1.51-3.02-8.44-0.6-10.56l11.76-1.81
		c12.07-1.81,13.87-6.03,13.87-21.11c0-18.1-0.3-48.26-0.6-67.86c-0.3-15.68-0.6-28.95-1.81-48.56h-0.6
		c-16.89,39.21-53.99,114.01-65.75,151.41c-1.81,1.21-5.13,1.81-7.84,1.81c-2.41,0-4.52-0.91-6.03-2.11
		c-19.91-50.97-44.04-101.34-66.36-149.6h-0.6v34.38l-0.6,78.42c0,18.4,0,22.02,13.87,23.83l9.05,1.21
		c3.02,2.11,2.71,9.05-0.91,10.56c-14.48-0.6-31.07-0.91-44.64-0.91c-14.78,0-27.75,0.3-41.62,0.91c-3.02-1.21-3.02-8.14-0.6-10.56
		l9.65-1.21c11.76-1.51,12.97-8.75,13.57-22.62c1.81-38,2.41-70.58,2.41-132.71c0-15.98-6.03-19.6-18.4-21.71l-8.75-1.51
		c-2.41-3.02-2.41-8.75,0.91-10.56c10.86,0.6,24.73,0.91,34.69,0.91c9.05,0,15.98,0.3,29.86-0.91
		c6.63,25.94,14.18,41.92,28.65,72.99l15.38,33.18c8.14,17.8,12.97,27.15,16.89,34.38c4.22-7.54,15.08-26.54,17.79-32.57
		l19.91-42.53C937.95,37.1,948.5,18.7,948.5,0c10.86,0.91,19.6,0.91,29.56,0.91c14.78,0,27.75-0.3,38-0.91
		c3.32,0.91,3.32,8.14,0.91,10.56L1010.33,11.76z"/>
	<path class="st0" d="M677.67,204.19c-37.1,0-69.37-20.81-69.37-64.84c0-42.53,31.97-64.24,67.56-64.24
		c35.59,0,69.67,23.83,69.37,66.96C744.93,183.68,713.56,204.19,677.67,204.19z M677.67,88.98c-17.19,0-25.64,25.34-25.94,54.59
		c-0.3,27.14,5.43,46.75,22.62,46.75c17.49,0,27.45-23.22,27.45-54.89C701.8,102.55,690.94,88.98,677.67,88.98z"/>
	<path class="st0" d="M499.13,95.61c-3.02-1.81-3.92-7.24-3.92-10.56c0-2.72,0.91-4.52,2.41-5.73h26.84c5.43,0,5.73-0.3,5.73-6.03
		V50.67c1.51-2.41,6.94-2.71,9.05-1.51c9.35,13.27,16.89,19.6,22.32,23.53c7.24,4.83,15.68,10.25,25.03,13.57
		c2.41,2.11,1.51,8.14-1.81,9.35h-9.35c-5.43,0-5.73,0.6-5.73,6.94v67.26c0,19.91-8.75,34.38-33.78,34.38
		c-18.7,0-34.99-8.44-43.43-17.49c-0.6-3.62,1.21-6.94,4.22-7.84c3.62,2.41,8.44,4.52,12.67,4.52c21.11,0,21.11-18.7,21.11-35.59
		v-45.24c0-6.63-0.3-6.94-4.22-6.94H499.13z"/>
	<path class="st0" d="M424.94,109.49c0-13.57-0.3-26.84-0.9-35.89c1.21-1.81,3.02-2.71,5.43-2.71c9.05,5.43,30.46,13.57,44.64,17.49
		c2.11,1.81,2.11,7.24,0,9.05l-4.22,2.72c-5.73,3.62-5.73,7.24-5.73,19.3v45.54c0,21.11,1.21,23.83,11.16,24.73l5.73,0.6
		c2.41,1.81,2.41,8.75-0.3,10.56c-9.95-0.6-22.62-0.91-36.19-0.91c-13.87,0-25.64,0.3-36.19,0.91c-2.72-1.81-2.72-8.75-0.3-10.56
		l5.73-0.6c9.95-0.91,11.16-3.62,11.16-24.73V109.49z M443.64,7.24c12.06,0,22.62,8.75,22.62,22.02c0,12.37-7.84,21.42-21.11,21.42
		c-11.46,0-22.62-7.54-22.62-22.02C422.52,16.59,430.97,7.24,443.64,7.24z"/>
	<path class="st0" d="M320.29,204.19c-37.1,0-69.37-20.81-69.37-64.84c0-42.53,31.97-64.24,67.56-64.24
		c35.59,0,69.67,23.83,69.37,66.96C387.55,183.68,356.18,204.19,320.29,204.19z M320.29,88.98c-17.19,0-25.64,25.34-25.94,54.59
		c-0.3,27.14,5.43,46.75,22.62,46.75c17.49,0,27.45-23.22,27.45-54.89C344.42,102.55,333.56,88.98,320.29,88.98z"/>
	<path class="st0" d="M210.21,164.98c0,21.11,1.21,23.53,12.07,24.73l4.83,0.6c2.41,1.81,2.41,8.75-0.3,10.56
		c-10.56-0.6-22.92-0.91-35.59-0.91c-14.48,0-24.13,0.3-33.48,0.91c-2.71-1.81-2.71-8.75-0.3-10.56l4.83-0.6
		c7.54-0.91,8.75-3.62,8.75-20.21v-53.99c0-5.43-0.6-9.05-2.41-11.16c-2.41-3.32-8.44-7.24-16.89-7.24
		c-15.08,0-21.11,9.65-21.11,21.42v50.97c0,16.59,1.21,18.7,8.14,19.91l5.43,0.91c2.41,1.81,2.41,8.75-0.3,10.56
		c-8.75-0.6-20.51-0.91-32.57-0.91c-14.48,0-27.15,0.3-36.5,0.91c-2.71-1.81-2.71-8.75-0.3-10.56l4.83-0.6
		c10.86-1.21,12.07-3.62,12.07-24.73V113.1c0-20.81,12.67-38,37.7-38c13.87,0,28.05,8.14,34.69,12.06c1.81,0.91,4.83,2.41,5.73,2.41
		c0.9,0,1.51-0.6,1.51-2.41c0-2.11-0.9-9.35-0.9-13.57c1.21-1.81,3.02-2.71,5.43-2.71c8.75,5.43,30.46,13.57,44.64,17.49
		c2.11,1.81,2.11,7.24,0,9.05l-4.22,2.72c-5.73,3.62-5.73,7.24-5.73,19.3V164.98z"/>
	<path class="st0" d="M24.43,204.19C9.95,204.19,0,193.63,0,179.76c0-12.97,9.95-25.03,24.43-25.03c13.57,0,24.43,10.86,24.43,25.03
		C48.86,194.54,36.5,204.19,24.43,204.19z"/>
</g>
</svg>
