<svg id="レイヤー_1" data-name="レイヤー 1" xmlns="http://www.w3.org/2000/svg" viewBox="0 0 25.27 29.87"><defs></defs><path class="cls-1" d="M19.54,1.32a.28.28,0,0,0-.31,0,15.22,15.22,0,0,0-4,5.31,15.75,15.75,0,0,0-1.8,8.24,17.52,17.52,0,0,1-2,9A17.52,17.52,0,0,1,7.83,29a.32.32,0,0,0-.08.28.31.31,0,0,0,.2.2,10.08,10.08,0,0,0,2.83.43h0c4.51,0,8.61-3.46,11.84-10C27,11,25.94,4.57,19.54,1.32ZM15.65,26.75a8.15,8.15,0,0,1-4.87,1.69l-.54,0A21.38,21.38,0,0,0,12.7,24.5a18.79,18.79,0,0,0,2.12-9.61,14.38,14.38,0,0,1,1.65-7.6A14.5,14.5,0,0,1,19.56,3a9,9,0,0,1,2.91,2.61A7.87,7.87,0,0,1,23.8,9.37c.27,2.73-.56,6.06-2.44,9.87A20.43,20.43,0,0,1,15.65,26.75Z"/><path class="cls-1" d="M11.87,15a17.42,17.42,0,0,1,2-9A17.64,17.64,0,0,1,17.44.9a.3.3,0,0,0,.08-.27.27.27,0,0,0-.2-.2A9.66,9.66,0,0,0,14.5,0C10,0,5.89,3.46,2.66,10-1.73,18.89-.67,25.3,5.73,28.55a.28.28,0,0,0,.13,0A.31.31,0,0,0,6,28.51a15.42,15.42,0,0,0,4-5.31A16,16,0,0,0,11.87,15ZM2.81,24.3a8,8,0,0,1-1.34-3.81c-.26-2.73.56-6,2.45-9.86a20.23,20.23,0,0,1,5.7-7.51A8.2,8.2,0,0,1,14.5,1.43H15a20.63,20.63,0,0,0-2.46,3.93A18.63,18.63,0,0,0,10.46,15a14.48,14.48,0,0,1-1.66,7.6,14.18,14.18,0,0,1-3.08,4.35A9,9,0,0,1,2.81,24.3Z"/></svg>