<svg id="レイヤー_1" data-name="レイヤー 1" xmlns="http://www.w3.org/2000/svg" viewBox="0 0 25.26 29.87"><defs></defs><path class="cls-1" d="M19.53,1.32a.28.28,0,0,0-.13,0,.26.26,0,0,0-.18.07l-.09.08h0a14.93,14.93,0,0,0-3.95,5.21,15.69,15.69,0,0,0-1.78,8.12,17.67,17.67,0,0,1-2,9.09A17.53,17.53,0,0,1,7.72,29h.06a.27.27,0,0,0,.16.41,10.08,10.08,0,0,0,2.83.43h0c4.51,0,8.6-3.46,11.84-10C27,11,25.93,4.57,19.53,1.32Z"/><path class="cls-1" d="M11.86,15a17.31,17.31,0,0,1,2-9A17.64,17.64,0,0,1,17.43.9a.3.3,0,0,0,.08-.27.27.27,0,0,0-.2-.2A9.68,9.68,0,0,0,14.48,0,9.15,9.15,0,0,0,9.82,1.32C6.92,2.94,4.52,6.1,2.6,10A22.78,22.78,0,0,0,0,18.77c0,.08,0,.16,0,.24s0,.42,0,.63a9.57,9.57,0,0,0,5.71,8.91.28.28,0,0,0,.13,0A.31.31,0,0,0,6,28.51a15.3,15.3,0,0,0,4-5.31A15.91,15.91,0,0,0,11.86,15Z"/></svg>