<svg width="35" height="35" viewBox="0 0 35 35" fill="none" xmlns="http://www.w3.org/2000/svg">
<path d="M20.1542 32.0833H14.8459C14.1606 32.0833 13.5677 31.6064 13.4211 30.937L12.8275 28.1895C12.0357 27.8426 11.2849 27.4088 10.589 26.896L7.91002 27.7491C7.25669 27.9575 6.54646 27.6825 6.20377 27.0885L3.54377 22.4933C3.20484 21.899 3.32161 21.1494 3.82523 20.6864L5.90336 18.7906C5.80885 17.9318 5.80885 17.0652 5.90336 16.2064L3.82523 14.315C3.32087 13.8517 3.20405 13.1012 3.54377 12.5066L6.19794 7.9085C6.54063 7.31452 7.25086 7.03953 7.90419 7.24788L10.5831 8.101C10.9391 7.83727 11.3096 7.59383 11.6929 7.37183C12.0609 7.1643 12.4397 6.9764 12.8275 6.80892L13.4225 4.06433C13.5685 3.39491 14.1607 2.91735 14.8459 2.91663H20.1542C20.8393 2.91735 21.4316 3.39491 21.5775 4.06433L22.1784 6.81038C22.5878 6.9905 22.9866 7.19403 23.3727 7.41996C23.7328 7.62823 24.081 7.85657 24.4154 8.10392L27.0959 7.25079C27.7488 7.04323 28.4581 7.31811 28.8006 7.91142L31.4548 12.5095C31.7938 13.1038 31.677 13.8534 31.1734 14.3164L29.0952 16.2123C29.1897 17.071 29.1897 17.9376 29.0952 18.7964L31.1734 20.6923C31.677 21.1553 31.7938 21.9049 31.4548 22.4991L28.8006 27.0973C28.4581 27.6906 27.7488 27.9654 27.0959 27.7579L24.4154 26.9048C24.0763 27.1546 23.7238 27.3858 23.3596 27.5975C22.9773 27.819 22.5829 28.0191 22.1784 28.1968L21.5775 30.937C21.431 31.6059 20.8389 32.0827 20.1542 32.0833ZM11.1125 23.6673L12.3084 24.5423C12.5779 24.7408 12.8589 24.9234 13.1498 25.0891C13.4235 25.2477 13.7054 25.3917 13.9942 25.5208L15.3548 26.1173L16.0213 29.1666H18.9817L19.6481 26.1158L21.0088 25.5193C21.6028 25.2574 22.1665 24.9317 22.6902 24.5481L23.8875 23.6731L26.864 24.621L28.3442 22.0573L26.0356 19.9529L26.199 18.477C26.2707 17.8315 26.2707 17.1801 26.199 16.5345L26.0356 15.0587L28.3456 12.95L26.864 10.3848L23.8875 11.3327L22.6902 10.4577C22.1664 10.0722 21.6027 9.74419 21.0088 9.47913L19.6481 8.88267L18.9817 5.83329H16.0213L15.3519 8.88413L13.9942 9.47913C13.7052 9.60607 13.4233 9.74871 13.1498 9.90642C12.8607 10.0717 12.5812 10.2533 12.3127 10.4504L11.1154 11.3254L8.14044 10.3775L6.65732 12.95L8.96586 15.0514L8.80252 16.5287C8.73078 17.1742 8.73078 17.8257 8.80252 18.4712L8.96586 19.947L6.65732 22.0514L8.13752 24.6152L11.1125 23.6673ZM17.4942 23.3333C14.2725 23.3333 11.6609 20.7216 11.6609 17.5C11.6609 14.2783 14.2725 11.6666 17.4942 11.6666C20.7159 11.6666 23.3275 14.2783 23.3275 17.5C23.3235 20.72 20.7142 23.3293 17.4942 23.3333ZM17.4942 14.5833C15.9008 14.5849 14.6036 15.8649 14.5808 17.4582C14.5579 19.0514 15.8179 20.3681 17.4106 20.4153C19.0033 20.4626 20.3392 19.223 20.4109 17.6312V18.2145V17.5C20.4109 15.8891 19.105 14.5833 17.4942 14.5833Z" fill="#FC2951"/>
</svg>
